# xmcd
# 
# Track frame offsets:
#     150
#     36912
#     54005
#     78045
#     106367
#     139215
#     160255
#     184327
#     248137
# 
# Disc length: 3785
# 
# Revision: 2
# Processed by: cddbd v1.5.2PL0 Copyright (c) Steve Scherf et al.
# Submitted via: BonkEnc v1.0
# 
DISCID=6d0ec709
DTITLE=Paul Butterfield's Better Days - Live At Winterland Ballroom
DYEAR=1973
DGENRE=Blues
TTITLE0=Countryside
TTITLE1=Buried Alive In The Blues
TTITLE2=Small Town Talk
TTITLE3=New Walkin' Blues
TTITLE4=Broke My Baby's Heart
TTITLE5=Highway 28
TTITLE6=Please Send Me Somebody To Love
TTITLE7=He's Got All The Whiskey
TTITLE8=Nobody's Fault But Mine
EXTD=1. Countryside  \n2. Buried Alive In The Blues  \n3. Small Town Talk \n4. New Walkin' Blues \n5. Broke My Baby's Heart \n6. Highway 28  \n7. Please Send Me Somebody To Love \n8. He's Got All The Whiskey \n9. Nobody's Fault But Mine 
EXTT0=
EXTT1=
EXTT2=
EXTT3=
EXTT4=
EXTT5=
EXTT6=
EXTT7=
EXTT8=
PLAYORDER=
